{
    "asset" : {
        "generator" : "Khronos glTF Blender I/O v1.7.33",
        "version" : "2.0"
    },
    "scene" : 0,
    "scenes" : [
        {
            "name" : "Scene",
            "nodes" : [
                0
            ]
        }
    ],
    "nodes" : [
        {
            "mesh" : 0,
            "name" : "Circle",
            "rotation" : [
                0.7071068286895752,
                0,
                0,
                0.7071068286895752
            ],
            "scale" : [
                2.0526132583618164,
                2.0526132583618164,
                2.0526132583618164
            ],
            "translation" : [
                0,
                2.41397762298584,
                0
            ]
        }
    ],
    "materials" : [
        {
            "doubleSided" : true,
            "name" : "Material",
            "pbrMetallicRoughness" : {}
        },
        {
            "doubleSided" : true,
            "name" : "Centtro",
            "pbrMetallicRoughness" : {
                "baseColorFactor" : [
                    0.800000011920929,
                    0.800000011920929,
                    0.800000011920929,
                    1
                ],
                "metallicFactor" : 0,
                "roughnessFactor" : 0.5
            }
        }
    ],
    "meshes" : [
        {
            "name" : "Circle",
            "primitives" : [
                {
                    "attributes" : {
                        "POSITION" : 0,
                        "NORMAL" : 1,
                        "TEXCOORD_0" : 2
                    },
                    "indices" : 3,
                    "material" : 0
                },
                {
                    "attributes" : {
                        "POSITION" : 4,
                        "NORMAL" : 5,
                        "TEXCOORD_0" : 6
                    },
                    "indices" : 7,
                    "material" : 1
                }
            ]
        }
    ],
    "accessors" : [
        {
            "bufferView" : 0,
            "componentType" : 5126,
            "count" : 9856,
            "max" : [
                1.1186494827270508,
                0.2596246004104614,
                1.1186494827270508
            ],
            "min" : [
                -1.1186494827270508,
                -0.006487180478870869,
                -1.1186494827270508
            ],
            "type" : "VEC3"
        },
        {
            "bufferView" : 1,
            "componentType" : 5126,
            "count" : 9856,
            "type" : "VEC3"
        },
        {
            "bufferView" : 2,
            "componentType" : 5126,
            "count" : 9856,
            "type" : "VEC2"
        },
        {
            "bufferView" : 3,
            "componentType" : 5123,
            "count" : 58368,
            "type" : "SCALAR"
        },
        {
            "bufferView" : 4,
            "componentType" : 5126,
            "count" : 512,
            "max" : [
                0.9137587547302246,
                0.11637181788682938,
                0.9137586951255798
            ],
            "min" : [
                -0.9137586951255798,
                0.11637172847986221,
                -0.9137586951255798
            ],
            "type" : "VEC3"
        },
        {
            "bufferView" : 5,
            "componentType" : 5126,
            "count" : 512,
            "type" : "VEC3"
        },
        {
            "bufferView" : 6,
            "componentType" : 5126,
            "count" : 512,
            "type" : "VEC2"
        },
        {
            "bufferView" : 7,
            "componentType" : 5123,
            "count" : 768,
            "type" : "SCALAR"
        }
    ],
    "bufferViews" : [
        {
            "buffer" : 0,
            "byteLength" : 118272,
            "byteOffset" : 0
        },
        {
            "buffer" : 0,
            "byteLength" : 118272,
            "byteOffset" : 118272
        },
        {
            "buffer" : 0,
            "byteLength" : 78848,
            "byteOffset" : 236544
        },
        {
            "buffer" : 0,
            "byteLength" : 116736,
            "byteOffset" : 315392
        },
        {
            "buffer" : 0,
            "byteLength" : 6144,
            "byteOffset" : 432128
        },
        {
            "buffer" : 0,
            "byteLength" : 6144,
            "byteOffset" : 438272
        },
        {
            "buffer" : 0,
            "byteLength" : 4096,
            "byteOffset" : 444416
        },
        {
            "buffer" : 0,
            "byteLength" : 1536,
            "byteOffset" : 448512
        }
    ],
    "buffers" : [
        {
            "byteLength" : 450048,
            "uri" : "data:application/octet-stream;base64,"
        }
    ]
}
