{
    "asset" : {
        "generator" : "Khronos glTF Blender I/O v3.4.49",
        "version" : "2.0"
    },
    "scene" : 0,
    "scenes" : [
        {
            "name" : "Scene",
            "nodes" : [
                0,
                1
            ]
        }
    ],
    "nodes" : [
        {
            "mesh" : 0,
            "name" : "Cubo.048",
            "rotation" : [
                0.7071068286895752,
                -0.7071068286895752,
                0,
                1.1520234011186403e-07
            ],
            "scale" : [
                0.03266257420182228,
                0.17468033730983734,
                0.03266257420182228
            ],
            "translation" : [
                1.3606922626495361,
                0.8975661396980286,
                2.3160910606384277
            ]
        },
        {
            "mesh" : 1,
            "name" : "Cubo.032",
            "rotation" : [
                -0.00167560251429677,
                0.9075571894645691,
                0.41991913318634033,
                0.0022621580865234137
            ],
            "scale" : [
                0.16006650030612946,
                0.022146619856357574,
                0.1807859241962433
            ],
            "translation" : [
                -0.16667971014976501,
                1.1002227067947388,
                0.4453766942024231
            ]
        }
    ],
    "meshes" : [
        {
            "name" : "Cubo.058",
            "primitives" : [
                {
                    "attributes" : {
                        "POSITION" : 0,
                        "NORMAL" : 1
                    },
                    "indices" : 2
                }
            ]
        },
        {
            "name" : "Cubo.035",
            "primitives" : [
                {
                    "attributes" : {
                        "POSITION" : 3,
                        "NORMAL" : 4
                    },
                    "indices" : 5
                }
            ]
        }
    ],
    "accessors" : [
        {
            "bufferView" : 0,
            "componentType" : 5126,
            "count" : 408,
            "max" : [
                29.9936580657959,
                2.2620134353637695,
                4.728752136230469
            ],
            "min" : [
                -2.931258201599121,
                -1.1524503231048584,
                -5.250537872314453
            ],
            "type" : "VEC3"
        },
        {
            "bufferView" : 1,
            "componentType" : 5126,
            "count" : 408,
            "type" : "VEC3"
        },
        {
            "bufferView" : 2,
            "componentType" : 5123,
            "count" : 678,
            "type" : "SCALAR"
        },
        {
            "bufferView" : 3,
            "componentType" : 5126,
            "count" : 4368,
            "max" : [
                5.245706081390381,
                11.897449493408203,
                5.499383449554443
            ],
            "min" : [
                -7.021834850311279,
                -77.87178039550781,
                -6.652963638305664
            ],
            "type" : "VEC3"
        },
        {
            "bufferView" : 4,
            "componentType" : 5126,
            "count" : 4368,
            "type" : "VEC3"
        },
        {
            "bufferView" : 5,
            "componentType" : 5123,
            "count" : 9843,
            "type" : "SCALAR"
        }
    ],
    "bufferViews" : [
        {
            "buffer" : 0,
            "byteLength" : 4896,
            "byteOffset" : 0,
            "target" : 34962
        },
        {
            "buffer" : 0,
            "byteLength" : 4896,
            "byteOffset" : 4896,
            "target" : 34962
        },
        {
            "buffer" : 0,
            "byteLength" : 1356,
            "byteOffset" : 9792,
            "target" : 34963
        },
        {
            "buffer" : 0,
            "byteLength" : 52416,
            "byteOffset" : 11148,
            "target" : 34962
        },
        {
            "buffer" : 0,
            "byteLength" : 52416,
            "byteOffset" : 63564,
            "target" : 34962
        },
        {
            "buffer" : 0,
            "byteLength" : 19686,
            "byteOffset" : 115980,
            "target" : 34963
        }
    ],
    "buffers" : [
        {
            "byteLength" : 135668,
            "uri" : "data:application/octet-stream;base64,"
        }
    ]
}
