{
    "asset" : {
        "generator" : "Khronos glTF Blender I/O v1.8.19",
        "version" : "2.0"
    },
    "scene" : 0,
    "scenes" : [
        {
            "name" : "Scene",
            "nodes" : [
                6
            ]
        }
    ],
    "nodes" : [
        {
            "name" : "centro"
        },
        {
            "name" : "Alita.izq",
            "rotation" : [
                -0.9677793383598328,
                0.10856878012418747,
                0.009730001911520958,
                0.22698348760604858
            ],
            "scale" : [
                0.9999998211860657,
                1.0000001192092896,
                0.9999999403953552
            ],
            "translation" : [
                -0.7311742305755615,
                0.8940975069999695,
                0.12229496240615845
            ]
        },
        {
            "name" : "Alita.der",
            "rotation" : [
                -0.96834796667099,
                -0.08926109969615936,
                -0.036521539092063904,
                0.23021914064884186
            ],
            "translation" : [
                0.6927565932273865,
                0.8955506086349487,
                0.11596214026212692
            ]
        },
        {
            "name" : "ojo.der",
            "rotation" : [
                0.6447932720184326,
                1.0023082950283424e-06,
                8.455228908132995e-07,
                0.7643570303916931
            ],
            "scale" : [
                1,
                1.0000001192092896,
                1.0000048875808716
            ],
            "translation" : [
                0.2871352732181549,
                1.6410939693450928,
                1.3990769386291504
            ]
        },
        {
            "name" : "ojo.izq",
            "rotation" : [
                0.6447928547859192,
                1.0934119245575857e-06,
                9.223756478604628e-07,
                0.7643573880195618
            ],
            "scale" : [
                1,
                1,
                0.9999916553497314
            ],
            "translation" : [
                -0.2889902889728546,
                1.659848928451538,
                1.4204622507095337
            ]
        },
        {
            "mesh" : 0,
            "name" : "Wea de la cabeza",
            "skin" : 0
        },
        {
            "children" : [
                5,
                0,
                1,
                2,
                3,
                4
            ],
            "name" : "Armature",
            "rotation" : [
                -0.6447932124137878,
                0,
                0,
                0.7643570899963379
            ],
            "translation" : [
                0,
                1.5701136589050293,
                0.6186689734458923
            ]
        }
    ],
    "animations" : [
        {
            "channels" : [
                {
                    "sampler" : 0,
                    "target" : {
                        "node" : 0,
                        "path" : "translation"
                    }
                },
                {
                    "sampler" : 1,
                    "target" : {
                        "node" : 0,
                        "path" : "rotation"
                    }
                },
                {
                    "sampler" : 2,
                    "target" : {
                        "node" : 0,
                        "path" : "scale"
                    }
                },
                {
                    "sampler" : 3,
                    "target" : {
                        "node" : 1,
                        "path" : "translation"
                    }
                },
                {
                    "sampler" : 4,
                    "target" : {
                        "node" : 1,
                        "path" : "rotation"
                    }
                },
                {
                    "sampler" : 5,
                    "target" : {
                        "node" : 1,
                        "path" : "scale"
                    }
                },
                {
                    "sampler" : 6,
                    "target" : {
                        "node" : 2,
                        "path" : "translation"
                    }
                },
                {
                    "sampler" : 7,
                    "target" : {
                        "node" : 2,
                        "path" : "rotation"
                    }
                },
                {
                    "sampler" : 8,
                    "target" : {
                        "node" : 2,
                        "path" : "scale"
                    }
                },
                {
                    "sampler" : 9,
                    "target" : {
                        "node" : 3,
                        "path" : "translation"
                    }
                },
                {
                    "sampler" : 10,
                    "target" : {
                        "node" : 3,
                        "path" : "rotation"
                    }
                },
                {
                    "sampler" : 11,
                    "target" : {
                        "node" : 3,
                        "path" : "scale"
                    }
                },
                {
                    "sampler" : 12,
                    "target" : {
                        "node" : 4,
                        "path" : "translation"
                    }
                },
                {
                    "sampler" : 13,
                    "target" : {
                        "node" : 4,
                        "path" : "rotation"
                    }
                },
                {
                    "sampler" : 14,
                    "target" : {
                        "node" : 4,
                        "path" : "scale"
                    }
                }
            ],
            "name" : "Pollo",
            "samplers" : [
                {
                    "input" : 25,
                    "interpolation" : "LINEAR",
                    "output" : 26
                },
                {
                    "input" : 27,
                    "interpolation" : "LINEAR",
                    "output" : 28
                },
                {
                    "input" : 25,
                    "interpolation" : "LINEAR",
                    "output" : 29
                },
                {
                    "input" : 25,
                    "interpolation" : "LINEAR",
                    "output" : 30
                },
                {
                    "input" : 25,
                    "interpolation" : "LINEAR",
                    "output" : 31
                },
                {
                    "input" : 27,
                    "interpolation" : "LINEAR",
                    "output" : 32
                },
                {
                    "input" : 25,
                    "interpolation" : "LINEAR",
                    "output" : 33
                },
                {
                    "input" : 25,
                    "interpolation" : "LINEAR",
                    "output" : 34
                },
                {
                    "input" : 27,
                    "interpolation" : "LINEAR",
                    "output" : 35
                },
                {
                    "input" : 25,
                    "interpolation" : "LINEAR",
                    "output" : 36
                },
                {
                    "input" : 25,
                    "interpolation" : "LINEAR",
                    "output" : 37
                },
                {
                    "input" : 25,
                    "interpolation" : "LINEAR",
                    "output" : 38
                },
                {
                    "input" : 25,
                    "interpolation" : "LINEAR",
                    "output" : 39
                },
                {
                    "input" : 25,
                    "interpolation" : "LINEAR",
                    "output" : 40
                },
                {
                    "input" : 25,
                    "interpolation" : "LINEAR",
                    "output" : 41
                }
            ]
        }
    ],
    "materials" : [
        {
            "doubleSided" : true,
            "name" : "cresta",
            "pbrMetallicRoughness" : {
                "baseColorFactor" : [
                    0.7873992919921875,
                    0.165040522813797,
                    0.03590918332338333,
                    1
                ],
                "metallicFactor" : 0,
                "roughnessFactor" : 0.5
            }
        },
        {
            "doubleSided" : true,
            "name" : "Plumas",
            "pbrMetallicRoughness" : {
                "baseColorFactor" : [
                    0.05043685808777809,
                    0.17620348930358887,
                    0.5277190208435059,
                    1
                ],
                "metallicFactor" : 0,
                "roughnessFactor" : 0.5
            }
        },
        {
            "doubleSided" : true,
            "name" : "ojos",
            "pbrMetallicRoughness" : {
                "baseColorFactor" : [
                    0.02197912335395813,
                    0.02197912335395813,
                    0.02197912335395813,
                    1
                ],
                "metallicFactor" : 0,
                "roughnessFactor" : 0.5
            }
        },
        {
            "doubleSided" : true,
            "name" : "picos",
            "pbrMetallicRoughness" : {
                "baseColorFactor" : [
                    0.43854326009750366,
                    0.03495011478662491,
                    0.018159938976168633,
                    1
                ],
                "metallicFactor" : 0,
                "roughnessFactor" : 0.5
            }
        }
    ],
    "meshes" : [
        {
            "name" : "Cube.002",
            "primitives" : [
                {
                    "attributes" : {
                        "POSITION" : 0,
                        "NORMAL" : 1,
                        "TEXCOORD_0" : 2,
                        "JOINTS_0" : 3,
                        "WEIGHTS_0" : 4
                    },
                    "indices" : 5,
                    "material" : 0
                },
                {
                    "attributes" : {
                        "POSITION" : 6,
                        "NORMAL" : 7,
                        "TEXCOORD_0" : 8,
                        "JOINTS_0" : 9,
                        "WEIGHTS_0" : 10
                    },
                    "indices" : 11,
                    "material" : 1
                },
                {
                    "attributes" : {
                        "POSITION" : 12,
                        "NORMAL" : 13,
                        "TEXCOORD_0" : 14,
                        "JOINTS_0" : 15,
                        "WEIGHTS_0" : 16
                    },
                    "indices" : 17,
                    "material" : 2
                },
                {
                    "attributes" : {
                        "POSITION" : 18,
                        "NORMAL" : 19,
                        "TEXCOORD_0" : 20,
                        "JOINTS_0" : 21,
                        "WEIGHTS_0" : 22
                    },
                    "indices" : 23,
                    "material" : 3
                }
            ]
        }
    ],
    "skins" : [
        {
            "inverseBindMatrices" : 24,
            "joints" : [
                0,
                1,
                2,
                3,
                4
            ],
            "name" : "Armature"
        }
    ],
    "accessors" : [
        {
            "bufferView" : 0,
            "componentType" : 5126,
            "count" : 5882,
            "max" : [
                0.44935646653175354,
                3.7841594219207764,
                0.5964598059654236
            ],
            "min" : [
                -0.46238815784454346,
                0.19525903463363647,
                -0.6971195340156555
            ],
            "type" : "VEC3"
        },
        {
            "bufferView" : 1,
            "componentType" : 5126,
            "count" : 5882,
            "type" : "VEC3"
        },
        {
            "bufferView" : 2,
            "componentType" : 5126,
            "count" : 5882,
            "type" : "VEC2"
        },
        {
            "bufferView" : 3,
            "componentType" : 5121,
            "count" : 5882,
            "type" : "VEC4"
        },
        {
            "bufferView" : 4,
            "componentType" : 5126,
            "count" : 5882,
            "type" : "VEC4"
        },
        {
            "bufferView" : 5,
            "componentType" : 5123,
            "count" : 29952,
            "type" : "SCALAR"
        },
        {
            "bufferView" : 6,
            "componentType" : 5126,
            "count" : 4526,
            "max" : [
                1.2272104024887085,
                3.667663812637329,
                2.5116100311279297
            ],
            "min" : [
                -1.2118746042251587,
                0.8438339829444885,
                -1.0997157096862793
            ],
            "type" : "VEC3"
        },
        {
            "bufferView" : 7,
            "componentType" : 5126,
            "count" : 4526,
            "type" : "VEC3"
        },
        {
            "bufferView" : 8,
            "componentType" : 5126,
            "count" : 4526,
            "type" : "VEC2"
        },
        {
            "bufferView" : 9,
            "componentType" : 5121,
            "count" : 4526,
            "type" : "VEC4"
        },
        {
            "bufferView" : 10,
            "componentType" : 5126,
            "count" : 4526,
            "type" : "VEC4"
        },
        {
            "bufferView" : 11,
            "componentType" : 5123,
            "count" : 14016,
            "type" : "SCALAR"
        },
        {
            "bufferView" : 12,
            "componentType" : 5126,
            "count" : 11682,
            "max" : [
                0.36036989092826843,
                3.4590330123901367,
                -0.6511750817298889
            ],
            "min" : [
                -0.35315653681755066,
                3.187591075897217,
                -0.8838220238685608
            ],
            "type" : "VEC3"
        },
        {
            "bufferView" : 13,
            "componentType" : 5126,
            "count" : 11682,
            "type" : "VEC3"
        },
        {
            "bufferView" : 14,
            "componentType" : 5126,
            "count" : 11682,
            "type" : "VEC2"
        },
        {
            "bufferView" : 15,
            "componentType" : 5121,
            "count" : 11682,
            "type" : "VEC4"
        },
        {
            "bufferView" : 16,
            "componentType" : 5126,
            "count" : 11682,
            "type" : "VEC4"
        },
        {
            "bufferView" : 17,
            "componentType" : 5123,
            "count" : 69888,
            "type" : "SCALAR"
        },
        {
            "bufferView" : 18,
            "componentType" : 5126,
            "count" : 286,
            "max" : [
                0.27337631583213806,
                3.1484928131103516,
                -0.8890397548675537
            ],
            "min" : [
                -0.26616302132606506,
                2.7445971965789795,
                -1.4030613899230957
            ],
            "type" : "VEC3"
        },
        {
            "bufferView" : 19,
            "componentType" : 5126,
            "count" : 286,
            "type" : "VEC3"
        },
        {
            "bufferView" : 20,
            "componentType" : 5126,
            "count" : 286,
            "type" : "VEC2"
        },
        {
            "bufferView" : 21,
            "componentType" : 5121,
            "count" : 286,
            "type" : "VEC4"
        },
        {
            "bufferView" : 22,
            "componentType" : 5126,
            "count" : 286,
            "type" : "VEC4"
        },
        {
            "bufferView" : 23,
            "componentType" : 5123,
            "count" : 1536,
            "type" : "SCALAR"
        },
        {
            "bufferView" : 24,
            "componentType" : 5126,
            "count" : 5,
            "type" : "MAT4"
        },
        {
            "bufferView" : 25,
            "componentType" : 5126,
            "count" : 46,
            "max" : [
                1.875
            ],
            "min" : [
                0
            ],
            "type" : "SCALAR"
        },
        {
            "bufferView" : 26,
            "componentType" : 5126,
            "count" : 46,
            "type" : "VEC3"
        },
        {
            "bufferView" : 27,
            "componentType" : 5126,
            "count" : 2,
            "max" : [
                1.875
            ],
            "min" : [
                0
            ],
            "type" : "SCALAR"
        },
        {
            "bufferView" : 28,
            "componentType" : 5126,
            "count" : 2,
            "type" : "VEC4"
        },
        {
            "bufferView" : 29,
            "componentType" : 5126,
            "count" : 46,
            "type" : "VEC3"
        },
        {
            "bufferView" : 30,
            "componentType" : 5126,
            "count" : 46,
            "type" : "VEC3"
        },
        {
            "bufferView" : 31,
            "componentType" : 5126,
            "count" : 46,
            "type" : "VEC4"
        },
        {
            "bufferView" : 32,
            "componentType" : 5126,
            "count" : 2,
            "type" : "VEC3"
        },
        {
            "bufferView" : 33,
            "componentType" : 5126,
            "count" : 46,
            "type" : "VEC3"
        },
        {
            "bufferView" : 34,
            "componentType" : 5126,
            "count" : 46,
            "type" : "VEC4"
        },
        {
            "bufferView" : 35,
            "componentType" : 5126,
            "count" : 2,
            "type" : "VEC3"
        },
        {
            "bufferView" : 36,
            "componentType" : 5126,
            "count" : 46,
            "type" : "VEC3"
        },
        {
            "bufferView" : 37,
            "componentType" : 5126,
            "count" : 46,
            "type" : "VEC4"
        },
        {
            "bufferView" : 38,
            "componentType" : 5126,
            "count" : 46,
            "type" : "VEC3"
        },
        {
            "bufferView" : 39,
            "componentType" : 5126,
            "count" : 46,
            "type" : "VEC3"
        },
        {
            "bufferView" : 40,
            "componentType" : 5126,
            "count" : 46,
            "type" : "VEC4"
        },
        {
            "bufferView" : 41,
            "componentType" : 5126,
            "count" : 46,
            "type" : "VEC3"
        }
    ],
    "bufferViews" : [
        {
            "buffer" : 0,
            "byteLength" : 70584,
            "byteOffset" : 0
        },
        {
            "buffer" : 0,
            "byteLength" : 70584,
            "byteOffset" : 70584
        },
        {
            "buffer" : 0,
            "byteLength" : 47056,
            "byteOffset" : 141168
        },
        {
            "buffer" : 0,
            "byteLength" : 23528,
            "byteOffset" : 188224
        },
        {
            "buffer" : 0,
            "byteLength" : 94112,
            "byteOffset" : 211752
        },
        {
            "buffer" : 0,
            "byteLength" : 59904,
            "byteOffset" : 305864
        },
        {
            "buffer" : 0,
            "byteLength" : 54312,
            "byteOffset" : 365768
        },
        {
            "buffer" : 0,
            "byteLength" : 54312,
            "byteOffset" : 420080
        },
        {
            "buffer" : 0,
            "byteLength" : 36208,
            "byteOffset" : 474392
        },
        {
            "buffer" : 0,
            "byteLength" : 18104,
            "byteOffset" : 510600
        },
        {
            "buffer" : 0,
            "byteLength" : 72416,
            "byteOffset" : 528704
        },
        {
            "buffer" : 0,
            "byteLength" : 28032,
            "byteOffset" : 601120
        },
        {
            "buffer" : 0,
            "byteLength" : 140184,
            "byteOffset" : 629152
        },
        {
            "buffer" : 0,
            "byteLength" : 140184,
            "byteOffset" : 769336
        },
        {
            "buffer" : 0,
            "byteLength" : 93456,
            "byteOffset" : 909520
        },
        {
            "buffer" : 0,
            "byteLength" : 46728,
            "byteOffset" : 1002976
        },
        {
            "buffer" : 0,
            "byteLength" : 186912,
            "byteOffset" : 1049704
        },
        {
            "buffer" : 0,
            "byteLength" : 139776,
            "byteOffset" : 1236616
        },
        {
            "buffer" : 0,
            "byteLength" : 3432,
            "byteOffset" : 1376392
        },
        {
            "buffer" : 0,
            "byteLength" : 3432,
            "byteOffset" : 1379824
        },
        {
            "buffer" : 0,
            "byteLength" : 2288,
            "byteOffset" : 1383256
        },
        {
            "buffer" : 0,
            "byteLength" : 1144,
            "byteOffset" : 1385544
        },
        {
            "buffer" : 0,
            "byteLength" : 4576,
            "byteOffset" : 1386688
        },
        {
            "buffer" : 0,
            "byteLength" : 3072,
            "byteOffset" : 1391264
        },
        {
            "buffer" : 0,
            "byteLength" : 320,
            "byteOffset" : 1394336
        },
        {
            "buffer" : 0,
            "byteLength" : 184,
            "byteOffset" : 1394656
        },
        {
            "buffer" : 0,
            "byteLength" : 552,
            "byteOffset" : 1394840
        },
        {
            "buffer" : 0,
            "byteLength" : 8,
            "byteOffset" : 1395392
        },
        {
            "buffer" : 0,
            "byteLength" : 32,
            "byteOffset" : 1395400
        },
        {
            "buffer" : 0,
            "byteLength" : 552,
            "byteOffset" : 1395432
        },
        {
            "buffer" : 0,
            "byteLength" : 552,
            "byteOffset" : 1395984
        },
        {
            "buffer" : 0,
            "byteLength" : 736,
            "byteOffset" : 1396536
        },
        {
            "buffer" : 0,
            "byteLength" : 24,
            "byteOffset" : 1397272
        },
        {
            "buffer" : 0,
            "byteLength" : 552,
            "byteOffset" : 1397296
        },
        {
            "buffer" : 0,
            "byteLength" : 736,
            "byteOffset" : 1397848
        },
        {
            "buffer" : 0,
            "byteLength" : 24,
            "byteOffset" : 1398584
        },
        {
            "buffer" : 0,
            "byteLength" : 552,
            "byteOffset" : 1398608
        },
        {
            "buffer" : 0,
            "byteLength" : 736,
            "byteOffset" : 1399160
        },
        {
            "buffer" : 0,
            "byteLength" : 552,
            "byteOffset" : 1399896
        },
        {
            "buffer" : 0,
            "byteLength" : 552,
            "byteOffset" : 1400448
        },
        {
            "buffer" : 0,
            "byteLength" : 736,
            "byteOffset" : 1401000
        },
        {
            "buffer" : 0,
            "byteLength" : 552,
            "byteOffset" : 1401736
        }
    ],
    "buffers" : [
        {
            "byteLength" : 1402288,
            "uri" : "data:application/octet-stream;base64,"
        }
    ]
}
