{
    "asset" : {
        "generator" : "Khronos glTF Blender I/O v1.8.19",
        "version" : "2.0"
    },
    "scene" : 0,
    "scenes" : [
        {
            "extras" : {
                "matlib" : {}
            },
            "name" : "Scene",
            "nodes" : [
                0,
                1,
                2,
                3
            ]
        }
    ],
    "nodes" : [
        {
            "mesh" : 0,
            "name" : "Cylinder",
            "scale" : [
                1.116279125213623,
                1.116279125213623,
                1.116279125213623
            ],
            "translation" : [
                0,
                2.4894614219665527,
                0
            ]
        },
        {
            "mesh" : 1,
            "name" : "Plane",
            "scale" : [
                0.4572569727897644,
                0.4572569727897644,
                0.4572569727897644
            ],
            "translation" : [
                0,
                2.385545253753662,
                0
            ]
        },
        {
            "mesh" : 2,
            "name" : "Circle",
            "scale" : [
                0.5765085816383362,
                0.5765085816383362,
                0.5765085816383362
            ],
            "translation" : [
                5.139665603637695,
                0.36549925804138184,
                0
            ]
        },
        {
            "mesh" : 3,
            "name" : "Circle.001",
            "scale" : [
                0.5765085816383362,
                0.5765085816383362,
                0.5765085816383362
            ],
            "translation" : [
                5.139665603637695,
                0.36549925804138184,
                0
            ]
        }
    ],
    "materials" : [
        {
            "doubleSided" : true,
            "name" : "Principal",
            "pbrMetallicRoughness" : {
                "baseColorFactor" : [
                    0.8000000715255737,
                    0.5237671136856079,
                    0.02044253796339035,
                    1
                ],
                "metallicFactor" : 0,
                "roughnessFactor" : 0.16141733527183533
            }
        },
        {
            "doubleSided" : true,
            "name" : "poste",
            "pbrMetallicRoughness" : {
                "baseColorFactor" : [
                    0.0038585937581956387,
                    0.0007524111424572766,
                    0.04202599078416824,
                    1
                ],
                "metallicFactor" : 0,
                "roughnessFactor" : 0.34251970052719116
            }
        },
        {
            "doubleSided" : true,
            "name" : "estrella",
            "pbrMetallicRoughness" : {
                "baseColorFactor" : [
                    0.8000000715255737,
                    0,
                    0.00354398088529706,
                    1
                ],
                "metallicFactor" : 0,
                "roughnessFactor" : 0.17716535925865173
            }
        },
        {
            "doubleSided" : true,
            "name" : "Loogo",
            "pbrMetallicRoughness" : {
                "baseColorTexture" : {
                    "index" : 0
                },
                "metallicFactor" : 0,
                "roughnessFactor" : 0.5
            }
        }
    ],
    "meshes" : [
        {
            "name" : "Cylinder",
            "primitives" : [
                {
                    "attributes" : {
                        "POSITION" : 0,
                        "NORMAL" : 1
                    },
                    "indices" : 2,
                    "material" : 0
                },
                {
                    "attributes" : {
                        "POSITION" : 3,
                        "NORMAL" : 4
                    },
                    "indices" : 5,
                    "material" : 1
                },
                {
                    "attributes" : {
                        "POSITION" : 6,
                        "NORMAL" : 7
                    },
                    "indices" : 8,
                    "material" : 2
                }
            ]
        },
        {
            "name" : "Plane.003",
            "primitives" : [
                {
                    "attributes" : {
                        "POSITION" : 9,
                        "NORMAL" : 10
                    },
                    "indices" : 11,
                    "material" : 0
                }
            ]
        },
        {
            "name" : "Circle",
            "primitives" : [
                {
                    "attributes" : {
                        "POSITION" : 12,
                        "NORMAL" : 13
                    },
                    "indices" : 14,
                    "material" : 0
                }
            ]
        },
        {
            "name" : "Circle.001",
            "primitives" : [
                {
                    "attributes" : {
                        "POSITION" : 15,
                        "NORMAL" : 16
                    },
                    "indices" : 17,
                    "material" : 3
                }
            ]
        }
    ],
    "textures" : [
        {
            "sampler" : 0,
            "source" : 0
        }
    ],
    "images" : [
        {
            "bufferView" : 18,
            "mimeType" : "image/jpeg",
            "name" : "logo eoluciona inverso"
        }
    ],
    "accessors" : [
        {
            "bufferView" : 0,
            "componentType" : 5126,
            "count" : 1376,
            "max" : [
                0.9750573039054871,
                0.5693122744560242,
                0.9750572443008423
            ],
            "min" : [
                -0.9750573039054871,
                -2.137683391571045,
                -0.9750573039054871
            ],
            "type" : "VEC3"
        },
        {
            "bufferView" : 1,
            "componentType" : 5126,
            "count" : 1376,
            "type" : "VEC3"
        },
        {
            "bufferView" : 2,
            "componentType" : 5123,
            "count" : 6990,
            "type" : "SCALAR"
        },
        {
            "bufferView" : 3,
            "componentType" : 5126,
            "count" : 576,
            "max" : [
                0.907059907913208,
                0.41026633977890015,
                0.9070599675178528
            ],
            "min" : [
                -0.907059907913208,
                -1.8045061826705933,
                -0.907059907913208
            ],
            "type" : "VEC3"
        },
        {
            "bufferView" : 4,
            "componentType" : 5126,
            "count" : 576,
            "type" : "VEC3"
        },
        {
            "bufferView" : 5,
            "componentType" : 5123,
            "count" : 2196,
            "type" : "SCALAR"
        },
        {
            "bufferView" : 6,
            "componentType" : 5126,
            "count" : 18,
            "max" : [
                0.3429889380931854,
                0.058283623307943344,
                0.8138602375984192
            ],
            "min" : [
                -0.3392622768878937,
                -1.2055939435958862,
                0.14469338953495026
            ],
            "type" : "VEC3"
        },
        {
            "bufferView" : 7,
            "componentType" : 5126,
            "count" : 18,
            "type" : "VEC3"
        },
        {
            "bufferView" : 8,
            "componentType" : 5123,
            "count" : 66,
            "type" : "SCALAR"
        },
        {
            "bufferView" : 9,
            "componentType" : 5126,
            "count" : 1236,
            "max" : [
                4.412530422210693,
                1.1886518001556396,
                0.1969848871231079
            ],
            "min" : [
                -4.412530422210693,
                -0.7946816086769104,
                -0.22775433957576752
            ],
            "type" : "VEC3"
        },
        {
            "bufferView" : 10,
            "componentType" : 5126,
            "count" : 1236,
            "type" : "VEC3"
        },
        {
            "bufferView" : 11,
            "componentType" : 5123,
            "count" : 7392,
            "type" : "SCALAR"
        },
        {
            "bufferView" : 12,
            "componentType" : 5126,
            "count" : 1312,
            "max" : [
                -8.173349380493164,
                4.512442588806152,
                1.979905128479004
            ],
            "min" : [
                -9.691839218139648,
                3.0281319618225098,
                1.420741319656372
            ],
            "type" : "VEC3"
        },
        {
            "bufferView" : 13,
            "componentType" : 5126,
            "count" : 1312,
            "type" : "VEC3"
        },
        {
            "bufferView" : 14,
            "componentType" : 5123,
            "count" : 2010,
            "type" : "SCALAR"
        },
        {
            "bufferView" : 15,
            "componentType" : 5126,
            "count" : 32,
            "max" : [
                -8.246339797973633,
                4.434771537780762,
                1.9067983627319336
            ],
            "min" : [
                -9.618846893310547,
                3.1110007762908936,
                1.5443044900894165
            ],
            "type" : "VEC3"
        },
        {
            "bufferView" : 16,
            "componentType" : 5126,
            "count" : 32,
            "type" : "VEC3"
        },
        {
            "bufferView" : 17,
            "componentType" : 5123,
            "count" : 90,
            "type" : "SCALAR"
        }
    ],
    "bufferViews" : [
        {
            "buffer" : 0,
            "byteLength" : 16512,
            "byteOffset" : 0
        },
        {
            "buffer" : 0,
            "byteLength" : 16512,
            "byteOffset" : 16512
        },
        {
            "buffer" : 0,
            "byteLength" : 13980,
            "byteOffset" : 33024
        },
        {
            "buffer" : 0,
            "byteLength" : 6912,
            "byteOffset" : 47004
        },
        {
            "buffer" : 0,
            "byteLength" : 6912,
            "byteOffset" : 53916
        },
        {
            "buffer" : 0,
            "byteLength" : 4392,
            "byteOffset" : 60828
        },
        {
            "buffer" : 0,
            "byteLength" : 216,
            "byteOffset" : 65220
        },
        {
            "buffer" : 0,
            "byteLength" : 216,
            "byteOffset" : 65436
        },
        {
            "buffer" : 0,
            "byteLength" : 132,
            "byteOffset" : 65652
        },
        {
            "buffer" : 0,
            "byteLength" : 14832,
            "byteOffset" : 65784
        },
        {
            "buffer" : 0,
            "byteLength" : 14832,
            "byteOffset" : 80616
        },
        {
            "buffer" : 0,
            "byteLength" : 14784,
            "byteOffset" : 95448
        },
        {
            "buffer" : 0,
            "byteLength" : 15744,
            "byteOffset" : 110232
        },
        {
            "buffer" : 0,
            "byteLength" : 15744,
            "byteOffset" : 125976
        },
        {
            "buffer" : 0,
            "byteLength" : 4020,
            "byteOffset" : 141720
        },
        {
            "buffer" : 0,
            "byteLength" : 384,
            "byteOffset" : 145740
        },
        {
            "buffer" : 0,
            "byteLength" : 384,
            "byteOffset" : 146124
        },
        {
            "buffer" : 0,
            "byteLength" : 180,
            "byteOffset" : 146508
        },
        {
            "buffer" : 0,
            "byteLength" : 31000,
            "byteOffset" : 146688
        }
    ],
    "samplers" : [
        {
            "magFilter" : 9729,
            "minFilter" : 9987
        }
    ],
    "buffers" : [
        {
            "byteLength" : 177688,
            "uri" : "data:application/octet-stream;base64,"
        }
    ]
}
