{
    "asset" : {
        "generator" : "Khronos glTF Blender I/O v1.8.19",
        "version" : "2.0"
    },
    "scene" : 0,
    "scenes" : [
        {
            "name" : "Scene",
            "nodes" : [
                0,
                1,
                2,
                3,
                4
            ]
        }
    ],
    "nodes" : [
        {
            "mesh" : 0,
            "name" : "Base",
            "scale" : [
                5.207196235656738,
                5.207196235656738,
                5.207196235656738
            ]
        },
        {
            "mesh" : 1,
            "name" : "Luces",
            "scale" : [
                2.1151297092437744,
                2.1151297092437744,
                2.1151297092437744
            ],
            "translation" : [
                0,
                2.65490460395813,
                0
            ]
        },
        {
            "mesh" : 2,
            "name" : "B.luces",
            "scale" : [
                4.311036586761475,
                4.311036586761475,
                4.311036586761475
            ],
            "translation" : [
                0,
                0.9579565525054932,
                0
            ]
        },
        {
            "name" : "Vac\u00edo",
            "rotation" : [
                0.7071068286895752,
                0,
                0,
                0.7071067094802856
            ],
            "scale" : [
                2.060910224914551,
                2.060910224914551,
                2.060910224914551
            ],
            "translation" : [
                0,
                5.2004547119140625,
                0
            ]
        },
        {
            "mesh" : 3,
            "name" : "Holograma",
            "scale" : [
                1.495837926864624,
                1.495837926864624,
                1.495837926864624
            ],
            "translation" : [
                2.7156503200531006,
                5.455718040466309,
                0
            ]
        }
    ],
    "materials" : [
        {
            "doubleSided" : true,
            "name" : "Base",
            "pbrMetallicRoughness" : {
                "baseColorFactor" : [
                    0.07060509920120239,
                    0.09331511706113815,
                    0.1385393887758255,
                    1
                ],
                "metallicFactor" : 0,
                "roughnessFactor" : 0.5
            }
        },
        {
            "doubleSided" : true,
            "name" : "Material.001",
            "pbrMetallicRoughness" : {
                "baseColorFactor" : [
                    0.17608413100242615,
                    0.1799767017364502,
                    0.15141728520393372,
                    1
                ],
                "metallicFactor" : 0,
                "roughnessFactor" : 0.5
            }
        },
        {
            "doubleSided" : true,
            "name" : "Luces",
            "pbrMetallicRoughness" : {
                "baseColorFactor" : [
                    0.014753698371350765,
                    0.05950513482093811,
                    0.14435650408267975,
                    1
                ],
                "metallicFactor" : 0,
                "roughnessFactor" : 0.5
            }
        },
        {
            "alphaMode" : "BLEND",
            "doubleSided" : true,
            "emissiveFactor" : [
                0.14761844816646885,
                1,
                1
            ],
            "name" : "Hologrma",
            "pbrMetallicRoughness" : {}
        }
    ],
    "meshes" : [
        {
            "name" : "Plano",
            "primitives" : [
                {
                    "attributes" : {
                        "POSITION" : 0,
                        "NORMAL" : 1,
                        "TEXCOORD_0" : 2
                    },
                    "indices" : 3,
                    "material" : 0
                }
            ]
        },
        {
            "name" : "Plano.001",
            "primitives" : [
                {
                    "attributes" : {
                        "POSITION" : 4,
                        "NORMAL" : 5,
                        "TEXCOORD_0" : 6
                    },
                    "indices" : 7,
                    "material" : 1
                }
            ]
        },
        {
            "name" : "Plano.002",
            "primitives" : [
                {
                    "attributes" : {
                        "POSITION" : 8,
                        "NORMAL" : 9,
                        "TEXCOORD_0" : 10
                    },
                    "indices" : 11,
                    "material" : 2
                }
            ]
        },
        {
            "name" : "Esfera geod\u00e9sica.002",
            "primitives" : [
                {
                    "attributes" : {
                        "POSITION" : 12,
                        "NORMAL" : 13,
                        "TEXCOORD_0" : 14
                    },
                    "indices" : 15,
                    "material" : 3
                }
            ]
        }
    ],
    "accessors" : [
        {
            "bufferView" : 0,
            "componentType" : 5126,
            "count" : 1049,
            "max" : [
                1.0602997541427612,
                0.1817779690027237,
                1.0602997541427612
            ],
            "min" : [
                -1.0602997541427612,
                0,
                -1.0602997541427612
            ],
            "type" : "VEC3"
        },
        {
            "bufferView" : 1,
            "componentType" : 5126,
            "count" : 1049,
            "type" : "VEC3"
        },
        {
            "bufferView" : 2,
            "componentType" : 5126,
            "count" : 1049,
            "type" : "VEC2"
        },
        {
            "bufferView" : 3,
            "componentType" : 5123,
            "count" : 1632,
            "type" : "SCALAR"
        },
        {
            "bufferView" : 4,
            "componentType" : 5126,
            "count" : 788,
            "max" : [
                1.3862844705581665,
                -0.013852119445800781,
                1.3862844705581665
            ],
            "min" : [
                -1.3862844705581665,
                -1.2960976362228394,
                -1.3862844705581665
            ],
            "type" : "VEC3"
        },
        {
            "bufferView" : 5,
            "componentType" : 5126,
            "count" : 788,
            "type" : "VEC3"
        },
        {
            "bufferView" : 6,
            "componentType" : 5126,
            "count" : 788,
            "type" : "VEC2"
        },
        {
            "bufferView" : 7,
            "componentType" : 5123,
            "count" : 1236,
            "type" : "SCALAR"
        },
        {
            "bufferView" : 8,
            "componentType" : 5126,
            "count" : 896,
            "max" : [
                1.279876708984375,
                0.4250171482563019,
                1.279876708984375
            ],
            "min" : [
                -1.279876708984375,
                -0.007912633009254932,
                -1.279876708984375
            ],
            "type" : "VEC3"
        },
        {
            "bufferView" : 9,
            "componentType" : 5126,
            "count" : 896,
            "type" : "VEC3"
        },
        {
            "bufferView" : 10,
            "componentType" : 5126,
            "count" : 896,
            "type" : "VEC2"
        },
        {
            "bufferView" : 11,
            "componentType" : 5123,
            "count" : 1344,
            "type" : "SCALAR"
        },
        {
            "bufferView" : 12,
            "componentType" : 5126,
            "count" : 19944,
            "max" : [
                0.9231224656105042,
                4.042757987976074,
                0.9248635768890381
            ],
            "min" : [
                -4.113558769226074,
                -1.5113253593444824,
                -0.9248635768890381
            ],
            "type" : "VEC3"
        },
        {
            "bufferView" : 13,
            "componentType" : 5126,
            "count" : 19944,
            "type" : "VEC3"
        },
        {
            "bufferView" : 14,
            "componentType" : 5126,
            "count" : 19944,
            "type" : "VEC2"
        },
        {
            "bufferView" : 15,
            "componentType" : 5123,
            "count" : 29916,
            "type" : "SCALAR"
        }
    ],
    "bufferViews" : [
        {
            "buffer" : 0,
            "byteLength" : 12588,
            "byteOffset" : 0
        },
        {
            "buffer" : 0,
            "byteLength" : 12588,
            "byteOffset" : 12588
        },
        {
            "buffer" : 0,
            "byteLength" : 8392,
            "byteOffset" : 25176
        },
        {
            "buffer" : 0,
            "byteLength" : 3264,
            "byteOffset" : 33568
        },
        {
            "buffer" : 0,
            "byteLength" : 9456,
            "byteOffset" : 36832
        },
        {
            "buffer" : 0,
            "byteLength" : 9456,
            "byteOffset" : 46288
        },
        {
            "buffer" : 0,
            "byteLength" : 6304,
            "byteOffset" : 55744
        },
        {
            "buffer" : 0,
            "byteLength" : 2472,
            "byteOffset" : 62048
        },
        {
            "buffer" : 0,
            "byteLength" : 10752,
            "byteOffset" : 64520
        },
        {
            "buffer" : 0,
            "byteLength" : 10752,
            "byteOffset" : 75272
        },
        {
            "buffer" : 0,
            "byteLength" : 7168,
            "byteOffset" : 86024
        },
        {
            "buffer" : 0,
            "byteLength" : 2688,
            "byteOffset" : 93192
        },
        {
            "buffer" : 0,
            "byteLength" : 239328,
            "byteOffset" : 95880
        },
        {
            "buffer" : 0,
            "byteLength" : 239328,
            "byteOffset" : 335208
        },
        {
            "buffer" : 0,
            "byteLength" : 159552,
            "byteOffset" : 574536
        },
        {
            "buffer" : 0,
            "byteLength" : 59832,
            "byteOffset" : 734088
        }
    ],
    "buffers" : [
        {
            "byteLength" : 793920,
            "uri" : "data:application/octet-stream;base64,"
        }
    ]
}
