{
    "asset" : {
        "generator" : "Khronos glTF Blender I/O v3.4.49",
        "version" : "2.0"
    },
    "scene" : 0,
    "scenes" : [
        {
            "name" : "Scene",
            "nodes" : [
                0,
                1,
                2
            ]
        }
    ],
    "nodes" : [
        {
            "mesh" : 0,
            "name" : "Cubo.002",
            "rotation" : [
                0,
                -0.277322918176651,
                0,
                0.9607767462730408
            ],
            "scale" : [
                85.44730377197266,
                5.859293460845947,
                22.613895416259766
            ],
            "translation" : [
                -3.0125222206115723,
                -5.013609886169434,
                -28.870954513549805
            ]
        },
        {
            "mesh" : 1,
            "name" : "Dientes",
            "rotation" : [
                0.27726835012435913,
                -0.6504784822463989,
                0.6377747654914856,
                0.3053579032421112
            ],
            "scale" : [
                5.394756317138672,
                8.568785667419434,
                4.223946571350098
            ],
            "translation" : [
                -40.82101821899414,
                -40.90933609008789,
                -55.855831146240234
            ]
        },
        {
            "name" : "Esfera",
            "rotation" : [
                0.00467236852273345,
                0.37745216488838196,
                -0.03549136966466904,
                0.9253368973731995
            ],
            "scale" : [
                72.91165924072266,
                4.753101825714111,
                103.75431823730469
            ],
            "translation" : [
                -15.321649551391602,
                -12.048990249633789,
                -25.48749542236328
            ]
        }
    ],
    "materials" : [
        {
            "doubleSided" : true,
            "name" : "Material.008",
            "pbrMetallicRoughness" : {
                "baseColorFactor" : [
                    0.8000000715255737,
                    0.06492041796445847,
                    0.3826957643032074,
                    1
                ],
                "metallicFactor" : 0,
                "roughnessFactor" : 0.5
            }
        },
        {
            "doubleSided" : true,
            "name" : "Material.006",
            "pbrMetallicRoughness" : {
                "baseColorFactor" : [
                    0.800000011920929,
                    0.800000011920929,
                    0.800000011920929,
                    1
                ],
                "metallicFactor" : 0,
                "roughnessFactor" : 0.5
            }
        },
        {
            "doubleSided" : true,
            "name" : "Material.007",
            "pbrMetallicRoughness" : {
                "baseColorFactor" : [
                    0.8000000715255737,
                    0.14505890011787415,
                    0.2978403568267822,
                    1
                ],
                "metallicFactor" : 0,
                "roughnessFactor" : 0.5
            }
        }
    ],
    "meshes" : [
        {
            "name" : "Mesh",
            "primitives" : [
                {
                    "attributes" : {
                        "POSITION" : 0,
                        "NORMAL" : 1
                    },
                    "indices" : 2,
                    "material" : 0
                }
            ]
        },
        {
            "name" : "Dientes",
            "primitives" : [
                {
                    "attributes" : {
                        "POSITION" : 3,
                        "NORMAL" : 4
                    },
                    "indices" : 5,
                    "material" : 1
                },
                {
                    "attributes" : {
                        "POSITION" : 6,
                        "NORMAL" : 7
                    },
                    "indices" : 8,
                    "material" : 2
                }
            ]
        }
    ],
    "accessors" : [
        {
            "bufferView" : 0,
            "componentType" : 5126,
            "count" : 288,
            "max" : [
                0.10562421381473541,
                2.573694944381714,
                1.4281948804855347
            ],
            "min" : [
                -0.9442940354347229,
                -0.5234607458114624,
                -1.2604705095291138
            ],
            "type" : "VEC3"
        },
        {
            "bufferView" : 1,
            "componentType" : 5126,
            "count" : 288,
            "type" : "VEC3"
        },
        {
            "bufferView" : 2,
            "componentType" : 5123,
            "count" : 432,
            "type" : "SCALAR"
        },
        {
            "bufferView" : 3,
            "componentType" : 5126,
            "count" : 1340,
            "max" : [
                9.64099407196045,
                7.438933849334717,
                -7.843780994415283
            ],
            "min" : [
                -8.549615859985352,
                -5.853904724121094,
                -18.627643585205078
            ],
            "type" : "VEC3"
        },
        {
            "bufferView" : 4,
            "componentType" : 5126,
            "count" : 1340,
            "type" : "VEC3"
        },
        {
            "bufferView" : 5,
            "componentType" : 5123,
            "count" : 6999,
            "type" : "SCALAR"
        },
        {
            "bufferView" : 6,
            "componentType" : 5126,
            "count" : 525,
            "max" : [
                9.706507682800293,
                7.378082752227783,
                -6.50653076171875
            ],
            "min" : [
                -8.44533920288086,
                -6.43271541595459,
                -19.63667106628418
            ],
            "type" : "VEC3"
        },
        {
            "bufferView" : 7,
            "componentType" : 5126,
            "count" : 525,
            "type" : "VEC3"
        },
        {
            "bufferView" : 8,
            "componentType" : 5123,
            "count" : 2724,
            "type" : "SCALAR"
        }
    ],
    "bufferViews" : [
        {
            "buffer" : 0,
            "byteLength" : 3456,
            "byteOffset" : 0,
            "target" : 34962
        },
        {
            "buffer" : 0,
            "byteLength" : 3456,
            "byteOffset" : 3456,
            "target" : 34962
        },
        {
            "buffer" : 0,
            "byteLength" : 864,
            "byteOffset" : 6912,
            "target" : 34963
        },
        {
            "buffer" : 0,
            "byteLength" : 16080,
            "byteOffset" : 7776,
            "target" : 34962
        },
        {
            "buffer" : 0,
            "byteLength" : 16080,
            "byteOffset" : 23856,
            "target" : 34962
        },
        {
            "buffer" : 0,
            "byteLength" : 13998,
            "byteOffset" : 39936,
            "target" : 34963
        },
        {
            "buffer" : 0,
            "byteLength" : 6300,
            "byteOffset" : 53936,
            "target" : 34962
        },
        {
            "buffer" : 0,
            "byteLength" : 6300,
            "byteOffset" : 60236,
            "target" : 34962
        },
        {
            "buffer" : 0,
            "byteLength" : 5448,
            "byteOffset" : 66536,
            "target" : 34963
        }
    ],
    "buffers" : [
        {
            "byteLength" : 71984,
            "uri" : "data:application/octet-stream;base64,"
        }
    ]
}
