{
    "asset" : {
        "generator" : "Khronos glTF Blender I/O v1.8.19",
        "version" : "2.0"
    },
    "scene" : 0,
    "scenes" : [
        {
            "name" : "Scene",
            "nodes" : [
                4
            ]
        }
    ],
    "nodes" : [
        {
            "name" : "Tubo",
            "rotation" : [
                7.803517831916906e-09,
                -5.947901371428088e-08,
                0.31038978695869446,
                0.9506093859672546
            ],
            "scale" : [
                0.9999999403953552,
                0.9999999403953552,
                1
            ],
            "translation" : [
                0.14584453403949738,
                0.3393077850341797,
                -0.19287721812725067
            ]
        },
        {
            "name" : "Rueda",
            "rotation" : [
                0.2996942400932312,
                -0.9539998769760132,
                0.007263098377734423,
                0.003860924392938614
            ],
            "scale" : [
                0.9999998807907104,
                0.9999999403953552,
                0.9999998807907104
            ],
            "translation" : [
                -3.2018003463745117,
                5.214709281921387,
                -0.1934489607810974
            ]
        },
        {
            "name" : "Base",
            "translation" : [
                0.06533312797546387,
                -8.056535720825195,
                -0.12101177126169205
            ]
        },
        {
            "mesh" : 0,
            "name" : "centro",
            "skin" : 0
        },
        {
            "children" : [
                3,
                0,
                1,
                2
            ],
            "name" : "Armature",
            "translation" : [
                0,
                4.674219131469727,
                0.09504512697458267
            ]
        }
    ],
    "animations" : [
        {
            "channels" : [
                {
                    "sampler" : 0,
                    "target" : {
                        "node" : 0,
                        "path" : "translation"
                    }
                },
                {
                    "sampler" : 1,
                    "target" : {
                        "node" : 0,
                        "path" : "rotation"
                    }
                },
                {
                    "sampler" : 2,
                    "target" : {
                        "node" : 0,
                        "path" : "scale"
                    }
                },
                {
                    "sampler" : 3,
                    "target" : {
                        "node" : 1,
                        "path" : "translation"
                    }
                },
                {
                    "sampler" : 4,
                    "target" : {
                        "node" : 1,
                        "path" : "rotation"
                    }
                },
                {
                    "sampler" : 5,
                    "target" : {
                        "node" : 1,
                        "path" : "scale"
                    }
                },
                {
                    "sampler" : 6,
                    "target" : {
                        "node" : 2,
                        "path" : "translation"
                    }
                },
                {
                    "sampler" : 7,
                    "target" : {
                        "node" : 2,
                        "path" : "rotation"
                    }
                },
                {
                    "sampler" : 8,
                    "target" : {
                        "node" : 2,
                        "path" : "scale"
                    }
                }
            ],
            "name" : "Balanceo",
            "samplers" : [
                {
                    "input" : 19,
                    "interpolation" : "LINEAR",
                    "output" : 20
                },
                {
                    "input" : 19,
                    "interpolation" : "LINEAR",
                    "output" : 21
                },
                {
                    "input" : 22,
                    "interpolation" : "LINEAR",
                    "output" : 23
                },
                {
                    "input" : 19,
                    "interpolation" : "LINEAR",
                    "output" : 24
                },
                {
                    "input" : 19,
                    "interpolation" : "LINEAR",
                    "output" : 25
                },
                {
                    "input" : 22,
                    "interpolation" : "LINEAR",
                    "output" : 26
                },
                {
                    "input" : 22,
                    "interpolation" : "LINEAR",
                    "output" : 27
                },
                {
                    "input" : 22,
                    "interpolation" : "LINEAR",
                    "output" : 28
                },
                {
                    "input" : 22,
                    "interpolation" : "LINEAR",
                    "output" : 29
                }
            ]
        }
    ],
    "materials" : [
        {
            "doubleSided" : true,
            "name" : "Principal",
            "pbrMetallicRoughness" : {
                "baseColorFactor" : [
                    0.7595384120941162,
                    0.8275567293167114,
                    0.003723378060385585,
                    1
                ],
                "metallicFactor" : 0,
                "roughnessFactor" : 0.5
            }
        },
        {
            "doubleSided" : true,
            "name" : "Postes",
            "pbrMetallicRoughness" : {
                "baseColorFactor" : [
                    0.033100344240665436,
                    0.029684623703360558,
                    0.03222604840993881,
                    1
                ],
                "metallicFactor" : 0,
                "roughnessFactor" : 0.19565218687057495
            }
        },
        {
            "doubleSided" : true,
            "name" : "Base",
            "pbrMetallicRoughness" : {
                "baseColorFactor" : [
                    0.8000000715255737,
                    0,
                    0.0044397530145943165,
                    1
                ],
                "metallicFactor" : 0,
                "roughnessFactor" : 0.5
            }
        }
    ],
    "meshes" : [
        {
            "name" : "Cube.002",
            "primitives" : [
                {
                    "attributes" : {
                        "POSITION" : 0,
                        "NORMAL" : 1,
                        "TEXCOORD_0" : 2,
                        "JOINTS_0" : 3,
                        "WEIGHTS_0" : 4
                    },
                    "indices" : 5,
                    "material" : 0
                },
                {
                    "attributes" : {
                        "POSITION" : 6,
                        "NORMAL" : 7,
                        "TEXCOORD_0" : 8,
                        "JOINTS_0" : 9,
                        "WEIGHTS_0" : 10
                    },
                    "indices" : 11,
                    "material" : 1
                },
                {
                    "attributes" : {
                        "POSITION" : 12,
                        "NORMAL" : 13,
                        "TEXCOORD_0" : 14,
                        "JOINTS_0" : 15,
                        "WEIGHTS_0" : 16
                    },
                    "indices" : 17,
                    "material" : 2
                }
            ]
        }
    ],
    "skins" : [
        {
            "inverseBindMatrices" : 18,
            "joints" : [
                0,
                1,
                2
            ],
            "name" : "Armature"
        }
    ],
    "accessors" : [
        {
            "bufferView" : 0,
            "componentType" : 5126,
            "count" : 1114,
            "max" : [
                1.8726494312286377,
                12.406885147094727,
                2.7373738288879395
            ],
            "min" : [
                -1.864203691482544,
                3.459099769592285,
                -2.520366668701172
            ],
            "type" : "VEC3"
        },
        {
            "bufferView" : 1,
            "componentType" : 5126,
            "count" : 1114,
            "type" : "VEC3"
        },
        {
            "bufferView" : 2,
            "componentType" : 5126,
            "count" : 1114,
            "type" : "VEC2"
        },
        {
            "bufferView" : 3,
            "componentType" : 5121,
            "count" : 1114,
            "type" : "VEC4"
        },
        {
            "bufferView" : 4,
            "componentType" : 5126,
            "count" : 1114,
            "type" : "VEC4"
        },
        {
            "bufferView" : 5,
            "componentType" : 5123,
            "count" : 1896,
            "type" : "SCALAR"
        },
        {
            "bufferView" : 6,
            "componentType" : 5126,
            "count" : 1420,
            "max" : [
                5.2194695472717285,
                6.342126846313477,
                3.307072162628174
            ],
            "min" : [
                -5.2194695472717285,
                -3.401270627975464,
                -3.15517520904541
            ],
            "type" : "VEC3"
        },
        {
            "bufferView" : 7,
            "componentType" : 5126,
            "count" : 1420,
            "type" : "VEC3"
        },
        {
            "bufferView" : 8,
            "componentType" : 5126,
            "count" : 1420,
            "type" : "VEC2"
        },
        {
            "bufferView" : 9,
            "componentType" : 5121,
            "count" : 1420,
            "type" : "VEC4"
        },
        {
            "bufferView" : 10,
            "componentType" : 5126,
            "count" : 1420,
            "type" : "VEC4"
        },
        {
            "bufferView" : 11,
            "componentType" : 5123,
            "count" : 2496,
            "type" : "SCALAR"
        },
        {
            "bufferView" : 12,
            "componentType" : 5126,
            "count" : 1550,
            "max" : [
                5.533791542053223,
                12.406885147094727,
                3.930858612060547
            ],
            "min" : [
                -5.533791542053223,
                -3.5976874828338623,
                -3.7240452766418457
            ],
            "type" : "VEC3"
        },
        {
            "bufferView" : 13,
            "componentType" : 5126,
            "count" : 1550,
            "type" : "VEC3"
        },
        {
            "bufferView" : 14,
            "componentType" : 5126,
            "count" : 1550,
            "type" : "VEC2"
        },
        {
            "bufferView" : 15,
            "componentType" : 5121,
            "count" : 1550,
            "type" : "VEC4"
        },
        {
            "bufferView" : 16,
            "componentType" : 5126,
            "count" : 1550,
            "type" : "VEC4"
        },
        {
            "bufferView" : 17,
            "componentType" : 5123,
            "count" : 2430,
            "type" : "SCALAR"
        },
        {
            "bufferView" : 18,
            "componentType" : 5126,
            "count" : 3,
            "type" : "MAT4"
        },
        {
            "bufferView" : 19,
            "componentType" : 5126,
            "count" : 66,
            "max" : [
                2.7083333333333335
            ],
            "min" : [
                0
            ],
            "type" : "SCALAR"
        },
        {
            "bufferView" : 20,
            "componentType" : 5126,
            "count" : 66,
            "type" : "VEC3"
        },
        {
            "bufferView" : 21,
            "componentType" : 5126,
            "count" : 66,
            "type" : "VEC4"
        },
        {
            "bufferView" : 22,
            "componentType" : 5126,
            "count" : 2,
            "max" : [
                2.7083333333333335
            ],
            "min" : [
                0
            ],
            "type" : "SCALAR"
        },
        {
            "bufferView" : 23,
            "componentType" : 5126,
            "count" : 2,
            "type" : "VEC3"
        },
        {
            "bufferView" : 24,
            "componentType" : 5126,
            "count" : 66,
            "type" : "VEC3"
        },
        {
            "bufferView" : 25,
            "componentType" : 5126,
            "count" : 66,
            "type" : "VEC4"
        },
        {
            "bufferView" : 26,
            "componentType" : 5126,
            "count" : 2,
            "type" : "VEC3"
        },
        {
            "bufferView" : 27,
            "componentType" : 5126,
            "count" : 2,
            "type" : "VEC3"
        },
        {
            "bufferView" : 28,
            "componentType" : 5126,
            "count" : 2,
            "type" : "VEC4"
        },
        {
            "bufferView" : 29,
            "componentType" : 5126,
            "count" : 2,
            "type" : "VEC3"
        }
    ],
    "bufferViews" : [
        {
            "buffer" : 0,
            "byteLength" : 13368,
            "byteOffset" : 0
        },
        {
            "buffer" : 0,
            "byteLength" : 13368,
            "byteOffset" : 13368
        },
        {
            "buffer" : 0,
            "byteLength" : 8912,
            "byteOffset" : 26736
        },
        {
            "buffer" : 0,
            "byteLength" : 4456,
            "byteOffset" : 35648
        },
        {
            "buffer" : 0,
            "byteLength" : 17824,
            "byteOffset" : 40104
        },
        {
            "buffer" : 0,
            "byteLength" : 3792,
            "byteOffset" : 57928
        },
        {
            "buffer" : 0,
            "byteLength" : 17040,
            "byteOffset" : 61720
        },
        {
            "buffer" : 0,
            "byteLength" : 17040,
            "byteOffset" : 78760
        },
        {
            "buffer" : 0,
            "byteLength" : 11360,
            "byteOffset" : 95800
        },
        {
            "buffer" : 0,
            "byteLength" : 5680,
            "byteOffset" : 107160
        },
        {
            "buffer" : 0,
            "byteLength" : 22720,
            "byteOffset" : 112840
        },
        {
            "buffer" : 0,
            "byteLength" : 4992,
            "byteOffset" : 135560
        },
        {
            "buffer" : 0,
            "byteLength" : 18600,
            "byteOffset" : 140552
        },
        {
            "buffer" : 0,
            "byteLength" : 18600,
            "byteOffset" : 159152
        },
        {
            "buffer" : 0,
            "byteLength" : 12400,
            "byteOffset" : 177752
        },
        {
            "buffer" : 0,
            "byteLength" : 6200,
            "byteOffset" : 190152
        },
        {
            "buffer" : 0,
            "byteLength" : 24800,
            "byteOffset" : 196352
        },
        {
            "buffer" : 0,
            "byteLength" : 4860,
            "byteOffset" : 221152
        },
        {
            "buffer" : 0,
            "byteLength" : 192,
            "byteOffset" : 226012
        },
        {
            "buffer" : 0,
            "byteLength" : 264,
            "byteOffset" : 226204
        },
        {
            "buffer" : 0,
            "byteLength" : 792,
            "byteOffset" : 226468
        },
        {
            "buffer" : 0,
            "byteLength" : 1056,
            "byteOffset" : 227260
        },
        {
            "buffer" : 0,
            "byteLength" : 8,
            "byteOffset" : 228316
        },
        {
            "buffer" : 0,
            "byteLength" : 24,
            "byteOffset" : 228324
        },
        {
            "buffer" : 0,
            "byteLength" : 792,
            "byteOffset" : 228348
        },
        {
            "buffer" : 0,
            "byteLength" : 1056,
            "byteOffset" : 229140
        },
        {
            "buffer" : 0,
            "byteLength" : 24,
            "byteOffset" : 230196
        },
        {
            "buffer" : 0,
            "byteLength" : 24,
            "byteOffset" : 230220
        },
        {
            "buffer" : 0,
            "byteLength" : 32,
            "byteOffset" : 230244
        },
        {
            "buffer" : 0,
            "byteLength" : 24,
            "byteOffset" : 230276
        }
    ],
    "buffers" : [
        {
            "byteLength" : 230300,
            "uri" : "data:application/octet-stream;base64,"
        }
    ]
}
