{
    "asset" : {
        "generator" : "Khronos glTF Blender I/O v1.8.19",
        "version" : "2.0"
    },
    "scene" : 0,
    "scenes" : [
        {
            "name" : "Scene",
            "nodes" : [
                0,
                1,
                2,
                3
            ]
        }
    ],
    "nodes" : [
        {
            "mesh" : 0,
            "name" : "Cube",
            "translation" : [
                0,
                2.267627477645874,
                0
            ]
        },
        {
            "mesh" : 1,
            "name" : "13646_Polo_Goggles_v2_L3",
            "rotation" : [
                0.7071068286895752,
                0,
                0,
                0.7071067094802856
            ]
        },
        {
            "mesh" : 2,
            "name" : "Circle",
            "scale" : [
                0.21137410402297974,
                0.21137410402297974,
                0.21137410402297974
            ],
            "translation" : [
                -2.5703516006469727,
                2.0146782398223877,
                2.227128028869629
            ]
        },
        {
            "mesh" : 3,
            "name" : "Colmillos",
            "scale" : [
                0.21137410402297974,
                0.21137410402297974,
                0.21137410402297974
            ],
            "translation" : [
                -1.7868285179138184,
                2.0146782398223877,
                2.227128028869629
            ]
        }
    ],
    "materials" : [
        {
            "doubleSided" : true,
            "name" : "black",
            "pbrMetallicRoughness" : {
                "baseColorFactor" : [
                    0,
                    0,
                    0,
                    1
                ],
                "metallicFactor" : 0,
                "roughnessFactor" : 0.5
            }
        },
        {
            "doubleSided" : true,
            "name" : "Pelaje",
            "pbrMetallicRoughness" : {
                "baseColorFactor" : [
                    0,
                    0.11927556246519089,
                    0.0267996434122324,
                    1
                ],
                "metallicFactor" : 0,
                "roughnessFactor" : 0.5
            }
        },
        {
            "doubleSided" : true,
            "name" : "Pansita",
            "pbrMetallicRoughness" : {
                "baseColorFactor" : [
                    0.9699215292930603,
                    0.38337627053260803,
                    0.07141055911779404,
                    1
                ],
                "metallicFactor" : 0,
                "roughnessFactor" : 0.5
            }
        },
        {
            "doubleSided" : true,
            "name" : "Polo_Goggles_glass",
            "pbrMetallicRoughness" : {}
        },
        {
            "doubleSided" : true,
            "name" : "Polo_Goggles_loop",
            "pbrMetallicRoughness" : {
                "baseColorFactor" : [
                    0.046961478888988495,
                    0.046961478888988495,
                    0.046961478888988495,
                    1
                ],
                "metallicFactor" : 0,
                "roughnessFactor" : 0.5
            }
        },
        {
            "doubleSided" : true,
            "name" : "Polo_Goggles_body",
            "pbrMetallicRoughness" : {
                "baseColorFactor" : [
                    0.0037633792962878942,
                    0,
                    0.22658386826515198,
                    1
                ],
                "metallicFactor" : 0,
                "roughnessFactor" : 0.5
            }
        },
        {
            "doubleSided" : true,
            "name" : "huesudo",
            "pbrMetallicRoughness" : {
                "baseColorFactor" : [
                    0.8000000715255737,
                    0.7385982275009155,
                    0.26423341035842896,
                    1
                ],
                "metallicFactor" : 0,
                "roughnessFactor" : 0.5
            }
        }
    ],
    "meshes" : [
        {
            "name" : "Cube.001",
            "primitives" : [
                {
                    "attributes" : {
                        "POSITION" : 0,
                        "NORMAL" : 1
                    },
                    "indices" : 2,
                    "material" : 0
                },
                {
                    "attributes" : {
                        "POSITION" : 3,
                        "NORMAL" : 4
                    },
                    "indices" : 5,
                    "material" : 1
                },
                {
                    "attributes" : {
                        "POSITION" : 6,
                        "NORMAL" : 7
                    },
                    "indices" : 8,
                    "material" : 2
                }
            ]
        },
        {
            "name" : "13646_Polo_Goggles_v2_L3",
            "primitives" : [
                {
                    "attributes" : {
                        "POSITION" : 9,
                        "NORMAL" : 10
                    },
                    "indices" : 11,
                    "material" : 3
                },
                {
                    "attributes" : {
                        "POSITION" : 12,
                        "NORMAL" : 13
                    },
                    "indices" : 14,
                    "material" : 4
                },
                {
                    "attributes" : {
                        "POSITION" : 15,
                        "NORMAL" : 16
                    },
                    "indices" : 17,
                    "material" : 5
                }
            ]
        },
        {
            "name" : "Mesh",
            "primitives" : [
                {
                    "attributes" : {
                        "POSITION" : 18,
                        "NORMAL" : 19
                    },
                    "indices" : 20,
                    "material" : 6
                }
            ]
        },
        {
            "name" : "Mesh",
            "primitives" : [
                {
                    "attributes" : {
                        "POSITION" : 21,
                        "NORMAL" : 22
                    },
                    "indices" : 20,
                    "material" : 6
                }
            ]
        }
    ],
    "accessors" : [
        {
            "bufferView" : 0,
            "componentType" : 5126,
            "count" : 1920,
            "max" : [
                1.354420781135559,
                0.9343855977058411,
                0.9876156449317932
            ],
            "min" : [
                -1.354420781135559,
                -2.124083995819092,
                -0.663936972618103
            ],
            "type" : "VEC3"
        },
        {
            "bufferView" : 1,
            "componentType" : 5126,
            "count" : 1920,
            "type" : "VEC3"
        },
        {
            "bufferView" : 2,
            "componentType" : 5123,
            "count" : 10560,
            "type" : "SCALAR"
        },
        {
            "bufferView" : 3,
            "componentType" : 5126,
            "count" : 2320,
            "max" : [
                1.597136378288269,
                1.5827265977859497,
                1.36894953250885
            ],
            "min" : [
                -1.597136378288269,
                -2.2417027950286865,
                -0.8151085376739502
            ],
            "type" : "VEC3"
        },
        {
            "bufferView" : 4,
            "componentType" : 5126,
            "count" : 2320,
            "type" : "VEC3"
        },
        {
            "bufferView" : 5,
            "componentType" : 5123,
            "count" : 13632,
            "type" : "SCALAR"
        },
        {
            "bufferView" : 6,
            "componentType" : 5126,
            "count" : 1166,
            "max" : [
                1.3907808065414429,
                1.0645654201507568,
                0.9353362321853638
            ],
            "min" : [
                -1.3907808065414429,
                -1.8781625032424927,
                -0.1823444664478302
            ],
            "type" : "VEC3"
        },
        {
            "bufferView" : 7,
            "componentType" : 5126,
            "count" : 1166,
            "type" : "VEC3"
        },
        {
            "bufferView" : 8,
            "componentType" : 5123,
            "count" : 6720,
            "type" : "SCALAR"
        },
        {
            "bufferView" : 9,
            "componentType" : 5126,
            "count" : 4098,
            "max" : [
                1.1181517839431763,
                1.0370150804519653,
                -3.2169370651245117
            ],
            "min" : [
                -1.1191091537475586,
                0.6682416796684265,
                -3.890843152999878
            ],
            "type" : "VEC3"
        },
        {
            "bufferView" : 10,
            "componentType" : 5126,
            "count" : 4098,
            "type" : "VEC3"
        },
        {
            "bufferView" : 11,
            "componentType" : 5123,
            "count" : 24576,
            "type" : "SCALAR"
        },
        {
            "bufferView" : 12,
            "componentType" : 5126,
            "count" : 8290,
            "max" : [
                1.3043509721755981,
                0.5390109419822693,
                -3.0294063091278076
            ],
            "min" : [
                -1.29730224609375,
                -1.4432404041290283,
                -3.5437870025634766
            ],
            "type" : "VEC3"
        },
        {
            "bufferView" : 13,
            "componentType" : 5126,
            "count" : 8290,
            "type" : "VEC3"
        },
        {
            "bufferView" : 14,
            "componentType" : 5123,
            "count" : 49728,
            "type" : "SCALAR"
        },
        {
            "bufferView" : 15,
            "componentType" : 5126,
            "count" : 19720,
            "max" : [
                1.281894326210022,
                1.052488923072815,
                -3.1759557723999023
            ],
            "min" : [
                -1.274385690689087,
                0.2955041229724884,
                -3.9273359775543213
            ],
            "type" : "VEC3"
        },
        {
            "bufferView" : 16,
            "componentType" : 5126,
            "count" : 19720,
            "type" : "VEC3"
        },
        {
            "bufferView" : 17,
            "componentType" : 5123,
            "count" : 118368,
            "type" : "SCALAR"
        },
        {
            "bufferView" : 18,
            "componentType" : 5126,
            "count" : 834,
            "max" : [
                10.680914878845215,
                3.257582664489746,
                -4.955606460571289
            ],
            "min" : [
                9.88559627532959,
                0.7356971502304077,
                -7.096297740936279
            ],
            "type" : "VEC3"
        },
        {
            "bufferView" : 19,
            "componentType" : 5126,
            "count" : 834,
            "type" : "VEC3"
        },
        {
            "bufferView" : 20,
            "componentType" : 5123,
            "count" : 4992,
            "type" : "SCALAR"
        },
        {
            "bufferView" : 21,
            "componentType" : 5126,
            "count" : 834,
            "max" : [
                10.680914878845215,
                3.257582664489746,
                -4.955606460571289
            ],
            "min" : [
                9.88559627532959,
                0.7356971502304077,
                -7.096297740936279
            ],
            "type" : "VEC3"
        },
        {
            "bufferView" : 22,
            "componentType" : 5126,
            "count" : 834,
            "type" : "VEC3"
        }
    ],
    "bufferViews" : [
        {
            "buffer" : 0,
            "byteLength" : 23040,
            "byteOffset" : 0
        },
        {
            "buffer" : 0,
            "byteLength" : 23040,
            "byteOffset" : 23040
        },
        {
            "buffer" : 0,
            "byteLength" : 21120,
            "byteOffset" : 46080
        },
        {
            "buffer" : 0,
            "byteLength" : 27840,
            "byteOffset" : 67200
        },
        {
            "buffer" : 0,
            "byteLength" : 27840,
            "byteOffset" : 95040
        },
        {
            "buffer" : 0,
            "byteLength" : 27264,
            "byteOffset" : 122880
        },
        {
            "buffer" : 0,
            "byteLength" : 13992,
            "byteOffset" : 150144
        },
        {
            "buffer" : 0,
            "byteLength" : 13992,
            "byteOffset" : 164136
        },
        {
            "buffer" : 0,
            "byteLength" : 13440,
            "byteOffset" : 178128
        },
        {
            "buffer" : 0,
            "byteLength" : 49176,
            "byteOffset" : 191568
        },
        {
            "buffer" : 0,
            "byteLength" : 49176,
            "byteOffset" : 240744
        },
        {
            "buffer" : 0,
            "byteLength" : 49152,
            "byteOffset" : 289920
        },
        {
            "buffer" : 0,
            "byteLength" : 99480,
            "byteOffset" : 339072
        },
        {
            "buffer" : 0,
            "byteLength" : 99480,
            "byteOffset" : 438552
        },
        {
            "buffer" : 0,
            "byteLength" : 99456,
            "byteOffset" : 538032
        },
        {
            "buffer" : 0,
            "byteLength" : 236640,
            "byteOffset" : 637488
        },
        {
            "buffer" : 0,
            "byteLength" : 236640,
            "byteOffset" : 874128
        },
        {
            "buffer" : 0,
            "byteLength" : 236736,
            "byteOffset" : 1110768
        },
        {
            "buffer" : 0,
            "byteLength" : 10008,
            "byteOffset" : 1347504
        },
        {
            "buffer" : 0,
            "byteLength" : 10008,
            "byteOffset" : 1357512
        },
        {
            "buffer" : 0,
            "byteLength" : 9984,
            "byteOffset" : 1367520
        },
        {
            "buffer" : 0,
            "byteLength" : 10008,
            "byteOffset" : 1377504
        },
        {
            "buffer" : 0,
            "byteLength" : 10008,
            "byteOffset" : 1387512
        }
    ],
    "buffers" : [
        {
            "byteLength" : 1397520,
            "uri" : "data:application/octet-stream;base64,"
        }
    ]
}
